<svg width="490" height="55" viewBox="0 0 490 55" fill="none" xmlns="http://www.w3.org/2000/svg">
<path d="M19.08 8.688C23.816 8.688 27.9547 9.648 31.496 11.568C35.08 13.488 37.832 16.1547 39.752 19.568C41.672 22.9813 42.632 26.864 42.632 31.216C42.632 35.5253 41.672 39.408 39.752 42.864C37.832 46.32 35.08 49.0507 31.496 51.056C27.9547 53.0187 23.816 54 19.08 54H10.2C4.67716 54 0.200012 49.5229 0.200012 44V8.688H19.08ZM17.8 41.328C21 41.328 23.5387 40.4533 25.416 38.704C27.2933 36.9547 28.232 34.4587 28.232 31.216C28.232 27.9733 27.2933 25.4773 25.416 23.728C23.5387 21.9787 21 21.104 17.8 21.104H14.408V41.328H17.8Z" fill="black"/>
<path d="M85.9705 17.904V44C85.9705 49.5228 81.4934 54 75.9705 54H71.7625V48.496C70.6532 50.2027 69.1598 51.5893 67.2825 52.656C65.4478 53.7227 63.2505 54.256 60.6905 54.256C56.5518 54.256 53.3092 52.8693 50.9625 50.096C48.6585 47.3227 47.5065 43.568 47.5065 38.832V17.904H56.6505C59.4119 17.904 61.6505 20.1426 61.6505 22.904V37.04C61.6505 38.7467 62.0985 40.112 62.9945 41.136C63.9332 42.1173 65.1705 42.608 66.7065 42.608C68.2852 42.608 69.5225 42.1173 70.4185 41.136C71.3145 40.112 71.7625 38.7467 71.7625 37.04V22.904C71.7625 20.1426 74.0011 17.904 76.7625 17.904H85.9705Z" fill="black"/>
<path d="M90.4675 35.952C90.4675 32.1973 91.2355 28.9333 92.7715 26.16C94.3502 23.344 96.5262 21.1893 99.2995 19.696C102.116 18.2027 105.316 17.456 108.9 17.456C113.593 17.456 117.54 18.7787 120.74 21.424C123.982 24.0693 126.03 27.7387 126.884 32.432H115.58C113.364 32.432 111.647 30.3213 109.51 29.7345C109.222 29.6555 108.912 29.616 108.58 29.616C107.428 29.616 106.51 30.1493 105.828 31.216C105.188 32.2827 104.868 33.8613 104.868 35.952C104.868 38.0427 105.188 39.6213 105.828 40.688C106.51 41.7547 107.428 42.288 108.58 42.288C108.912 42.288 109.222 42.2485 109.51 42.1695C111.647 41.5827 113.364 39.472 115.58 39.472H126.884C126.03 44.1653 123.982 47.8347 120.74 50.48C117.54 53.1253 113.593 54.448 108.9 54.448C105.316 54.448 102.116 53.7013 99.2995 52.208C96.5262 50.7147 94.3502 48.5813 92.7715 45.808C91.2355 42.992 90.4675 39.7067 90.4675 35.952Z" fill="black"/>
<path d="M157.28 54C155.547 54 153.937 53.1024 153.026 51.6279L145.596 39.6V54H141.388C135.865 54 131.388 49.5229 131.388 44V6.64H140.596C143.357 6.64 145.596 8.87858 145.596 11.64V31.408L153.135 20.126C154.062 18.7376 155.622 17.904 157.292 17.904H171.132L157.628 36.08L171.452 54H157.28Z" fill="black"/>
<path d="M193.518 8.688C198.254 8.688 202.392 9.648 205.934 11.568C209.518 13.488 212.27 16.1547 214.19 19.568C216.11 22.9813 217.07 26.864 217.07 31.216C217.07 35.5253 216.11 39.408 214.19 42.864C212.27 46.32 209.518 49.0507 205.934 51.056C202.392 53.0187 198.254 54 193.518 54H184.638C179.115 54 174.638 49.5229 174.638 44V8.688H193.518ZM192.238 41.328C195.438 41.328 197.976 40.4533 199.854 38.704C201.731 36.9547 202.67 34.4587 202.67 31.216C202.67 27.9733 201.731 25.4773 199.854 23.728C197.976 21.9787 195.438 21.104 192.238 21.104H188.846V41.328H192.238Z" fill="black"/>
<path d="M252.536 30.768C255.267 31.408 257.379 32.7307 258.872 34.736C260.408 36.6987 261.176 38.9813 261.176 41.584C261.176 45.552 259.853 48.624 257.208 50.8C254.605 52.9333 250.851 54 245.944 54H232.2C226.677 54 222.2 49.5229 222.2 44V8.688H245.304C249.912 8.688 253.539 9.69067 256.184 11.696C258.829 13.7013 260.152 16.624 260.152 20.464C260.152 23.1093 259.448 25.3493 258.04 27.184C256.675 28.976 254.84 30.1707 252.536 30.768ZM236.408 26.352H241.912C243.192 26.352 244.131 26.096 244.728 25.584C245.368 25.072 245.688 24.2827 245.688 23.216C245.688 22.1067 245.368 21.296 244.728 20.784C244.131 20.2293 243.192 19.952 241.912 19.952H236.408V26.352ZM242.872 42.608C244.152 42.608 245.091 42.3733 245.688 41.904C246.328 41.392 246.648 40.5813 246.648 39.472C246.648 37.296 245.389 36.208 242.872 36.208H236.408V42.608H242.872Z" fill="black"/>
<path d="M294.553 54.448C289.134 54.448 284.654 53.1893 281.113 50.672C277.614 48.112 275.716 44.3787 275.417 39.472H285.914C288.517 39.472 290.277 42.3581 292.743 43.1904C293.11 43.3141 293.521 43.376 293.977 43.376C294.745 43.376 295.385 43.2053 295.897 42.864C296.452 42.48 296.729 41.904 296.729 41.136C296.729 40.0693 296.153 39.216 295.001 38.576C293.849 37.8933 292.057 37.1253 289.625 36.272C286.724 35.248 284.313 34.2453 282.393 33.264C280.516 32.2827 278.894 30.8533 277.529 28.976C276.164 27.0987 275.502 24.688 275.545 21.744C275.545 18.8 276.292 16.304 277.785 14.256C279.321 12.1653 281.39 10.5867 283.993 9.52C286.638 8.45333 289.604 7.92 292.889 7.92C298.436 7.92 302.83 9.2 306.073 11.76C309.358 14.32 311.086 17.9253 311.257 22.576H298.951C297.284 22.576 296.223 20.9586 295.001 19.824V19.824C294.404 19.2693 293.678 18.992 292.825 18.992C292.228 18.992 291.737 19.2053 291.353 19.632C290.969 20.016 290.777 20.5707 290.777 21.296C290.777 22.32 291.332 23.1733 292.441 23.856C293.593 24.496 295.406 25.2853 297.881 26.224C300.74 27.2907 303.086 28.3147 304.921 29.296C306.798 30.2773 308.42 31.6427 309.785 33.392C311.15 35.1413 311.833 37.3387 311.833 39.984C311.833 42.7573 311.15 45.2533 309.785 47.472C308.42 49.648 306.436 51.3547 303.833 52.592C301.23 53.8293 298.137 54.448 294.553 54.448Z" fill="black"/>
<path d="M339.289 41.904V49C339.289 51.7614 337.05 54 334.289 54H333.913C324.014 54 319.065 49.072 319.065 39.216V29.744H314.585V17.904H319.065V9.2H328.273C331.034 9.2 333.273 11.4386 333.273 14.2V17.904H339.161V29.744H333.273V39.472C333.273 40.3253 333.465 40.944 333.849 41.328C334.276 41.712 334.958 41.904 335.897 41.904H339.289Z" fill="black"/>
<path d="M382.908 17.904V44C382.908 49.5228 378.431 54 372.908 54H368.7V48.496C367.591 50.2027 366.097 51.5893 364.22 52.656C362.385 53.7227 360.188 54.256 357.628 54.256C353.489 54.256 350.247 52.8693 347.9 50.096C345.596 47.3227 344.444 43.568 344.444 38.832V17.904H353.588C356.349 17.904 358.588 20.1426 358.588 22.904V37.04C358.588 38.7467 359.036 40.112 359.932 41.136C360.871 42.1173 362.108 42.608 363.644 42.608C365.223 42.608 366.46 42.1173 367.356 41.136C368.252 40.112 368.7 38.7467 368.7 37.04V22.904C368.7 20.1426 370.939 17.904 373.7 17.904H382.908Z" fill="black"/>
<path d="M387.405 35.952C387.405 32.1547 388.045 28.8693 389.325 26.096C390.648 23.28 392.44 21.1467 394.701 19.696C396.962 18.2027 399.501 17.456 402.317 17.456C404.664 17.456 406.669 17.9467 408.333 18.928C410.04 19.8667 411.341 21.168 412.237 22.832V6.64H421.445C424.206 6.64 426.445 8.87858 426.445 11.64V44C426.445 49.5228 421.968 54 416.445 54H412.237V49.072C411.341 50.736 410.04 52.0587 408.333 53.04C406.669 53.9787 404.664 54.448 402.317 54.448C399.501 54.448 396.962 53.7227 394.701 52.272C392.44 50.7787 390.648 48.6453 389.325 45.872C388.045 43.056 387.405 39.7493 387.405 35.952ZM412.301 35.952C412.301 34.032 411.81 32.5387 410.829 31.472C409.848 30.4053 408.589 29.872 407.053 29.872C405.517 29.872 404.258 30.4053 403.277 31.472C402.296 32.5387 401.805 34.032 401.805 35.952C401.805 37.872 402.296 39.3653 403.277 40.432C404.258 41.4987 405.517 42.032 407.053 42.032C408.589 42.032 409.848 41.4987 410.829 40.432C411.81 39.3653 412.301 37.872 412.301 35.952Z" fill="black"/>
<path d="M439.993 15.024C437.518 15.024 435.534 14.3627 434.041 13.04C432.548 11.7173 431.801 10.0533 431.801 8.048C431.801 6 432.548 4.31467 434.041 2.992C435.534 1.62667 437.518 0.944 439.993 0.944C442.425 0.944 444.388 1.62667 445.881 2.992C447.374 4.31467 448.121 6 448.121 8.048C448.121 10.0533 447.374 11.7173 445.881 13.04C444.388 14.3627 442.425 15.024 439.993 15.024ZM447.033 17.904V54H442.825C437.302 54 432.825 49.5229 432.825 44V17.904H447.033Z" fill="black"/>
<path d="M470.602 54.448C466.975 54.448 463.711 53.7013 460.81 52.208C457.909 50.7147 455.626 48.5813 453.962 45.808C452.341 42.992 451.53 39.7067 451.53 35.952C451.53 32.1973 452.341 28.9333 453.962 26.16C455.626 23.344 457.909 21.1893 460.81 19.696C463.711 18.2027 466.975 17.456 470.602 17.456C474.229 17.456 477.493 18.2027 480.394 19.696C483.295 21.1893 485.557 23.344 487.178 26.16C488.842 28.9333 489.674 32.1973 489.674 35.952C489.674 39.7067 488.842 42.992 487.178 45.808C485.557 48.5813 483.295 50.7147 480.394 52.208C477.493 53.7013 474.229 54.448 470.602 54.448ZM470.602 42.16C471.925 42.16 473.034 41.648 473.93 40.624C474.826 39.5573 475.274 38 475.274 35.952C475.274 33.904 474.826 32.368 473.93 31.344C473.034 30.2773 471.925 29.744 470.602 29.744C469.279 29.744 468.17 30.2773 467.274 31.344C466.378 32.368 465.93 33.904 465.93 35.952C465.93 38 466.357 39.5573 467.21 40.624C468.106 41.648 469.237 42.16 470.602 42.16Z" fill="black"/>
</svg>
