<svg width="529" height="111" viewBox="0 0 529 111" fill="none" xmlns="http://www.w3.org/2000/svg" class="hidden h-9 w-auto fill-teal-700 dark:fill-sky-100 lg:block">
      <path d="M0 18.5368V4.19284H57.903V18.5368H37.8355V81.6501H29.9629C24.4401 81.6501 19.9629 77.173 19.9629 71.6501V18.5368H0Z" fill="#082f49" />
      <path d="M95.4666 82.4225C86.9658 82.4225 79.9979 79.5537 74.563 73.8161C69.1281 68.005 66.4106 60.3181 66.4106 50.7555C66.4106 41.1928 69.0932 33.5795 74.4585 27.9155C79.8934 22.2515 86.8961 19.4195 95.4666 19.4195C104.037 19.4195 111.144 22.2147 116.788 27.8052C122.432 33.3956 125.254 41.1561 125.254 51.0865C125.254 53.2197 125.115 55.2058 124.836 57.0447H84.7012C85.0496 59.7664 86.1993 62.0099 88.1503 63.7754C90.1013 65.4672 92.1917 66.3131 94.4214 66.3131C96.7208 66.3131 98.4279 66.0924 99.5428 65.6511C100.658 65.1362 101.459 64.6581 101.947 64.2167C102.362 63.8326 102.856 63.2849 103.427 62.5735C103.818 62.0852 104.405 61.7893 105.031 61.7893H123.373C121.701 67.9682 118.356 72.9702 113.339 76.7952C108.322 80.5467 102.365 82.4225 95.4666 82.4225ZM106.65 45.2386C106.371 42.3698 105.187 40.0527 103.096 38.2873C101.006 36.4483 98.5325 35.5288 95.6756 35.5288C92.8188 35.5288 90.4149 36.4483 88.4639 38.2873C86.5129 40.0527 85.2935 42.3698 84.8058 45.2386H106.65Z" fill="#082f49" />
      <path d="M156.697 20.0815V29.1292C160.39 22.6561 166.278 19.4195 174.361 19.4195C178.681 19.4195 182.513 20.4493 185.858 22.5089C189.272 24.5686 191.92 27.5109 193.801 31.336C195.961 27.7316 198.748 24.8628 202.162 22.7296C205.646 20.5229 209.513 19.4195 213.764 19.4195C220.871 19.4195 226.515 21.7366 230.696 26.3708C234.877 31.005 236.967 37.4414 236.967 45.6799V76.6501C236.967 79.4115 234.728 81.6501 231.967 81.6501H224.199C221.437 81.6501 219.199 79.4115 219.199 76.6501V48.2177C219.199 44.2455 218.188 41.1928 216.168 39.0596C214.217 36.8529 211.499 35.7495 208.015 35.7495C204.531 35.7495 201.779 36.8529 199.758 39.0596C197.807 41.1928 196.832 44.2455 196.832 48.2177V76.6501C196.832 79.4115 194.593 81.6501 191.832 81.6501H184.064C181.302 81.6501 179.064 79.4115 179.064 76.6501V48.2177C179.064 44.2455 178.054 41.1928 176.033 39.0596C174.082 36.8529 171.364 35.7495 167.88 35.7495C164.397 35.7495 161.644 36.8529 159.624 39.0596C157.673 41.1928 156.697 44.2455 156.697 48.2177V76.6501C156.697 79.4115 154.458 81.6501 151.697 81.6501H143.824C141.063 81.6501 138.824 79.4115 138.824 76.6501V25.0815C138.824 22.3201 141.063 20.0815 143.824 20.0815H156.697Z" fill="#082f49" />
      <path d="M293.718 62.2306C296.297 59.5825 297.586 55.831 297.586 50.9761C297.586 46.1213 296.297 42.3698 293.718 39.7217C291.14 37.0736 288.179 35.7495 284.834 35.7495C281.49 35.7495 278.529 37.0736 275.95 39.7217C273.372 42.2962 272.083 46.0109 272.083 50.8658C272.083 55.7207 273.372 59.4722 275.95 62.1203C278.529 64.7684 281.49 66.0924 284.834 66.0924C288.179 66.0924 291.14 64.8052 293.718 62.2306ZM272.083 28.1362C276.055 22.3251 281.734 19.4195 289.12 19.4195C296.575 19.4195 302.881 22.3986 308.037 28.3569C313.194 34.2416 315.772 41.7813 315.772 50.9761C315.772 60.171 313.194 67.7107 308.037 73.5954C302.881 79.4801 296.645 82.4225 289.329 82.4225C282.012 82.4225 276.264 79.1859 272.083 72.7127V111H264.211C258.688 111 254.211 106.523 254.211 101V25.0815C254.211 22.3201 256.449 20.0815 259.211 20.0815H272.083V28.1362Z" fill="#082f49" />
      <path d="M339.28 81.6501C333.757 81.6501 329.28 77.173 329.28 71.6501V0H342.153C344.914 0 347.153 2.23858 347.153 5V81.6501H339.28Z" fill="#082f49" />
      <path d="M377.823 20.0815C380.585 20.0815 382.823 22.3201 382.823 25.0815V31.5567C387.004 23.4652 392.578 19.4195 399.546 19.4195V38.6183H395.156C391.045 38.6183 387.945 39.6481 385.854 41.7077C383.834 43.7674 382.823 47.3718 382.823 52.5209V79.6501C382.823 80.7547 381.928 81.6501 380.823 81.6501H366.951C365.846 81.6501 364.951 80.7547 364.951 79.6501V20.0815H377.823Z" fill="#082f49" />
      <path d="M437.259 56.9344V4.19284H450.132C452.893 4.19284 455.132 6.43142 455.132 9.19284V56.9344C455.132 64.9523 452.832 71.2048 448.234 75.6918C443.705 80.1789 437.886 82.4225 430.779 82.4225C423.672 82.4225 417.854 80.2157 413.325 75.8022C408.796 71.3151 406.531 65.0258 406.531 56.9344H424.299C424.369 59.8767 424.996 62.0467 426.18 63.4443C427.365 64.8419 428.898 65.5408 430.779 65.5408C432.66 65.5408 434.193 64.8419 435.378 63.4443C436.632 62.0467 437.259 59.8767 437.259 56.9344Z" fill="#082f49" />
      <path d="M500.362 17.9851C498.132 17.9851 496.286 18.6103 494.823 19.8608C493.429 21.1113 492.732 22.9135 492.732 25.2674C492.732 27.6213 493.394 29.5338 494.718 31.005C496.042 32.4026 497.749 33.506 499.839 34.3151C501.999 35.0507 504.369 35.7863 506.947 36.5219C509.594 37.1839 512.207 38.0298 514.786 39.0596C517.364 40.0159 519.698 41.2296 521.788 42.7008C523.948 44.172 525.69 46.2684 527.014 48.9901C528.338 51.6382 529 54.838 529 58.5895C529 65.1362 526.457 70.7634 521.37 75.4712C516.353 80.1054 509.699 82.4225 501.407 82.4225C493.185 82.4225 486.531 80.326 481.444 76.1332C478.806 73.9286 476.862 71.236 475.611 68.0553C473.59 62.9156 478.396 58.2584 483.919 58.2584H492.941C493.429 64.4374 496.425 67.5268 501.93 67.5268C504.508 67.5268 506.529 66.828 507.992 65.4304C509.455 63.9592 510.187 62.1203 510.187 59.9135C510.187 57.7068 509.525 55.9046 508.201 54.507C506.877 53.1093 505.135 52.006 502.975 51.1968C500.885 50.3877 498.516 49.6521 495.868 48.9901C493.29 48.2545 490.712 47.3718 488.133 46.3419C485.555 45.3121 483.186 44.0984 481.026 42.7008C478.936 41.2296 477.229 39.17 475.905 36.5219C474.581 33.8002 473.919 30.6004 473.919 26.9225C473.919 19.7137 476.462 13.9394 481.549 9.5994C486.635 5.25944 493.115 3.08946 500.989 3.08946C508.932 3.08946 515.343 5.00199 520.22 8.82703C524.017 11.7472 526.399 16.0045 527.367 21.5989C527.847 24.3693 525.532 26.7018 522.721 26.7018H508.41C508.131 23.9066 507.26 21.7734 505.797 20.3022C504.403 18.7575 502.592 17.9851 500.362 17.9851Z" fill="#082f49" />
    </svg>